<svg xmlns="http://www.w3.org/2000/svg" viewBox="0 0 38 38.03">
  <defs>
    <style>
      .cls-1 {
        fill: #0098e3;
      }
    </style>
  </defs>
  <title>logo_mark</title>
  <g id="レイヤー_2" data-name="レイヤー 2">
    <g id="logoMark">
      <path id="logoMarkPath" class="cls-1" d="M34.38,10.29a17.68,17.68,0,1,1-30.76,0A4.85,4.85,0,0,1,2.85,9,19,19,0,1,0,35.16,9a5.16,5.16,0,0,1-.78,1.27M11.83,13.12a1.46,1.46,0,0,0,.59,1.24,3.11,3.11,0,0,0,1,.33v-.2c0-.32,0-.63.07-.92a3.48,3.48,0,0,1-1.7-.8ZM12,14.88l.08.37a1.15,1.15,0,0,0,.8,1,2.89,2.89,0,0,0,.83,0,4.48,4.48,0,0,1-.23-1A3.47,3.47,0,0,1,12,14.88m1.54-2a1.76,1.76,0,0,0-1-1.8l-.71-.4,0,.37a1.52,1.52,0,0,0,.53,1.28,3.08,3.08,0,0,0,1.2.56m-.06,5.73.19.3c.51.77,1.38.9,1.68.51s.05-.73-.22-1.1a3.34,3.34,0,0,1-1.65.28m3.67,2.28a1.62,1.62,0,0,1,1.12-1,2.76,2.76,0,0,1,2,.19,1,1,0,0,1,.47.43,2.48,2.48,0,0,0-2.14-.2A1.09,1.09,0,0,0,18,21.42a2.13,2.13,0,0,1,1.18-.69,2.75,2.75,0,0,1,1.65.21,2.06,2.06,0,0,1,1.08,1.2,3.23,3.23,0,0,1-.11,2.46,1.24,1.24,0,0,1-.35.44,2.7,2.7,0,0,0,.1-2.05,1.88,1.88,0,0,0-.68-.89L20.53,22l.22.23.27.43A2.47,2.47,0,0,1,20.79,25a2.58,2.58,0,0,1-2.29,1.14l-3.86,0h0l-1.26,0a1,1,0,0,1-.76-.36l-.47-.59a3.12,3.12,0,0,0,.44.09h.06a3.48,3.48,0,0,0,.79,0,2.61,2.61,0,0,0,1.07-.42,2.71,2.71,0,0,0,.82-1,3.49,3.49,0,0,1,.72-1.1v-.24l-3.8.36-1.34.12.1-.37,2.46-.92.49-.18.42.43h3.08a1,1,0,0,1-.29-1.1M13,24.29a.93.93,0,0,0,.67-.89v-.1l.94-.11a1.79,1.79,0,0,1-1.4,1.6l-.15,0h-.4a1.79,1.79,0,0,1-1.51-1.25l.68-.07a.92.92,0,0,0,.92.82h.14l.1,0ZM9.78,25.91l-.27.39.44.54L9.73,27a2.81,2.81,0,0,1-1.25-.87,1.46,1.46,0,0,1-.23-1.67,1.24,1.24,0,0,1,.7-.57l.3-.08.18,0h0l.19,0h.06l.11,0,.07,0,.16,0,.42,0,1.49,2.33ZM3.41,7C5.85,8.39,8.32,9.75,10.84,11a1.54,1.54,0,0,0-.65-1.4L6.46,7.52a1.66,1.66,0,0,1-.8-1.26l7.61,4.21a3,3,0,0,1,1.39,1.34,3.71,3.71,0,0,1,.06,2.33c-.22,1.31.07,2.44,1,3,.56.31.94.56,1.06,1.22a2.12,2.12,0,0,1-1.3,2.31,1.77,1.77,0,0,1-1.44-.08A3.88,3.88,0,0,1,12.5,19a13.15,13.15,0,0,1-1.57-4.64q-3.25-1.5-6.42-3.22A6.42,6.42,0,0,0,5.42,13a3.67,3.67,0,0,0,1.31,1l3,1.31c.07.29.13.57.2.85-.64-.18-1.29-.39-1.92-.62a3.47,3.47,0,0,1-1.08-.6,4.46,4.46,0,0,0,.83,1.76,1.35,1.35,0,0,0,.7.45c.6.13,1.21.24,1.82.31l.24.78A13.29,13.29,0,0,1,9,18a3,3,0,0,1-1.18-.44A3.83,3.83,0,0,0,8.58,19a1.23,1.23,0,0,0,.93.33c.47,0,.93,0,1.39,0l.27.67a9.87,9.87,0,0,1-2.42.21,2.19,2.19,0,0,1-1.08-.32,4.54,4.54,0,0,0,.6,1.05,1.66,1.66,0,0,0,1.54.68c.65-.12,1.29-.25,1.93-.4.1.19.2.38.31.56l-.06,0h0l-.64.25-.91.38-.16.53L9.92,23a11.48,11.48,0,0,0-1.16.27,1.85,1.85,0,0,0-1.08.88A2,2,0,0,0,8,26.46a3.41,3.41,0,0,0,2,1.07l.74-.46h0l-.49-.59h2.38a8.09,8.09,0,0,1-.67.76l.07.13,1.13-.15L12,29.67l1.5-.17-.43,1.05a.63.63,0,0,1-.41.34,2.43,2.43,0,0,1-.6.05,2.6,2.6,0,0,1-1-.21.83.83,0,0,0-.54,0,.73.73,0,0,0-.4.87.87.87,0,0,0,1,.64l0-.39.33-.22h1.52l.57.71.69-.71H16l.16.06.1.3-.15.28a1.18,1.18,0,0,0,1.07-.33.74.74,0,0,0-.33-1.14.86.86,0,0,0-.61,0,2.2,2.2,0,0,1-1.32,0,.55.55,0,0,1-.36-.53,1.42,1.42,0,0,1,.23-.77l1.36.4L16,27.75l.68.12L16.89,30l1.65.33.18-1.45h.54l.18,1.45L21.09,30l.22-2.17.68-.12L21.86,30l1.36-.4a1.33,1.33,0,0,1,.22.77.53.53,0,0,1-.35.53,2.2,2.2,0,0,1-1.32,0,.86.86,0,0,0-.61,0,.74.74,0,0,0-.45.48.77.77,0,0,0,.12.66,1.2,1.2,0,0,0,1.08.33L21.75,32l.1-.3.16-.06H23.8l.7.71.57-.71h1.52l.33.22,0,.39a.87.87,0,0,0,1-.64.74.74,0,0,0-.39-.87.83.83,0,0,0-.54,0,2.65,2.65,0,0,1-1,.21,2.32,2.32,0,0,1-.59-.05.63.63,0,0,1-.41-.34l-.44-1,1.49.17-1.08-2.45,1.12.15.08-.13a5.85,5.85,0,0,1-1.53-2.15c.26.11.52.21.79.3a1.28,1.28,0,0,0,1-.2,11.63,11.63,0,0,0,.86-.86,2.77,2.77,0,0,1-.91-.11,13.49,13.49,0,0,1-1.78-.65c.18-.18.35-.38.52-.58.58.2,1.18.38,1.78.55a1.57,1.57,0,0,0,1.35-.43l.82-.93a2.43,2.43,0,0,1-1,.08,12,12,0,0,1-2.14-.44c.13-.21.26-.44.38-.67.64.14,1.28.28,1.92.4a1.66,1.66,0,0,0,1.54-.68,4.24,4.24,0,0,0,.61-1.05,2.05,2.05,0,0,1-1.08.31,9.86,9.86,0,0,1-2.42-.2c.1-.22.18-.45.27-.67.46,0,.92.05,1.39.05a1.27,1.27,0,0,0,.93-.33,4.09,4.09,0,0,0,.77-1.42A3,3,0,0,1,29,18a12.79,12.79,0,0,1-1.53.18l.24-.78c.6-.07,1.22-.18,1.82-.31a1.35,1.35,0,0,0,.7-.45,4.46,4.46,0,0,0,.83-1.76,3.69,3.69,0,0,1-1.08.6c-.63.23-1.28.44-1.92.62.07-.28.13-.56.2-.85l3-1.31a3.62,3.62,0,0,0,1.32-1,6.52,6.52,0,0,0,.9-1.88q-3.15,1.72-6.42,3.22A12.76,12.76,0,0,1,25.49,19a3.82,3.82,0,0,1-1.56,1.6,1.77,1.77,0,0,1-1.44.08,2.12,2.12,0,0,1-1.3-2.31c.12-.67.5-.9,1.07-1.22a2.65,2.65,0,0,0,1-3,3.71,3.71,0,0,1,.06-2.33,3,3,0,0,1,1.39-1.34l7.61-4.21a1.66,1.66,0,0,1-.8,1.26L27.81,9.65a1.51,1.51,0,0,0-.65,1.4c2.51-1.29,5-2.65,7.42-4.07a3.16,3.16,0,0,0,1.25-1.31,23.72,23.72,0,0,0,.9-2.57L24.48,9.93a5.3,5.3,0,0,0-1.21.83,2.66,2.66,0,0,0-.78,1.51,4.31,4.31,0,0,0,.06,1.52,4.2,4.2,0,0,1,0,1.8,1.5,1.5,0,0,1-.9,1,2.28,2.28,0,0,0-1.1,1.19c-.34.92-.58,1.39-1.57,1.39s-1.23-.47-1.57-1.39a2.28,2.28,0,0,0-1.1-1.19,1.46,1.46,0,0,1-.9-1,3.91,3.91,0,0,1,0-1.8,4.56,4.56,0,0,0,.05-1.52,2.59,2.59,0,0,0-.77-1.51,5.59,5.59,0,0,0-1.22-.83L1.26,3.09a26,26,0,0,0,.89,2.57A3.31,3.31,0,0,0,3.41,7M19,1.32a17.65,17.65,0,0,1,11.67,4.4L31.87,5A19,19,0,0,0,6.12,5l1.21.68A17.63,17.63,0,0,1,19,1.32M20.07,25a2.34,2.34,0,0,0,.48-1.32,2.5,2.5,0,0,0-.24-1,1.41,1.41,0,0,0-.86-.67,2.29,2.29,0,0,1,.47,1.92,3,3,0,0,1-.51,1.22,1.63,1.63,0,0,1-.42.45A1.41,1.41,0,0,0,20.07,25m-10.54-.8.36.55.68-.1-.36-.56Zm3-7.35.16.37a1.31,1.31,0,0,0,1.16.77,3.3,3.3,0,0,0,.83-.16,6.29,6.29,0,0,1-.7-.93,3.55,3.55,0,0,1-1.45-.05m10.05,2.6c.3.39,1.17.27,1.68-.51l.19-.3a3.48,3.48,0,0,1-1.65-.29c-.27.37-.46.78-.22,1.1m3.29-4.21.08-.38a3.38,3.38,0,0,1-1.48.46,4.57,4.57,0,0,1-.23,1,3.94,3.94,0,0,0,.84,0,1.19,1.19,0,0,0,.8-1m-.66,2,.16-.36a3.49,3.49,0,0,1-1.44,0,6.35,6.35,0,0,1-.71.93,3,3,0,0,0,.83.16,1.29,1.29,0,0,0,1.16-.77m-14.4-3.78c0-.54,0-1.1,0-1.64C8.24,10.55,5.69,9.23,3.17,7.88A4.5,4.5,0,0,0,4.23,10a4.21,4.21,0,0,0,1.24.85Zm15.31-2.37,0-.37-.71.4a1.75,1.75,0,0,0-1,1.8,3.22,3.22,0,0,0,1.2-.56,1.55,1.55,0,0,0,.52-1.28m0,1.69a3.48,3.48,0,0,1-1.7.8c0,.29.06.6.07.92v.2a3.05,3.05,0,0,0,1-.33,1.4,1.4,0,0,0,.59-1.24ZM16.93,25.65a1.62,1.62,0,0,0,.39-.73,1.43,1.43,0,0,0-.31-1,1.78,1.78,0,0,1-.26.92,1.74,1.74,0,0,1-.92.83Zm10.2-12.19h0l5.39-2.63A4.38,4.38,0,0,0,33.76,10a4.59,4.59,0,0,0,1.06-2.11q-3.78,2-7.64,3.93c0,.55,0,1.1-.05,1.65M18.91,24.89A1.5,1.5,0,0,0,18.57,23a2.37,2.37,0,0,1-.32,1.89,1.63,1.63,0,0,1-.69.73h.81a2.31,2.31,0,0,0,.54-.74"/>
    </g>
  </g>
</svg>
